<mxfile host="65bd71144e">
    <diagram id="E_QgQkRV4FquugX7nkDo" name="ページ1">
        <mxGraphModel dx="810" dy="570" grid="1" gridSize="10" guides="1" tooltips="1" connect="1" arrows="1" fold="1" page="1" pageScale="1" pageWidth="827" pageHeight="1169" math="0" shadow="0">
            <root>
                <mxCell id="0"/>
                <mxCell id="1" parent="0"/>
                <mxCell id="2" value="presentation" style="rounded=0;whiteSpace=wrap;html=1;fillColor=none;verticalAlign=top;fontStyle=1" vertex="1" parent="1">
                    <mxGeometry x="40" y="160" width="200" height="280" as="geometry"/>
                </mxCell>
                <mxCell id="3" value="アーキテクチャ：&lt;br&gt;3層構造" style="rounded=0;whiteSpace=wrap;html=1;align=left;shadow=1;glass=0;" vertex="1" parent="1">
                    <mxGeometry x="40" y="40" width="340" height="40" as="geometry"/>
                </mxCell>
                <mxCell id="4" value="" style="rounded=0;whiteSpace=wrap;html=1;fillColor=none;" vertex="1" parent="1">
                    <mxGeometry x="40" y="140" width="40" height="20" as="geometry"/>
                </mxCell>
                <mxCell id="5" value="applicaton" style="rounded=0;whiteSpace=wrap;html=1;fillColor=none;verticalAlign=top;fontStyle=1" vertex="1" parent="1">
                    <mxGeometry x="320" y="160" width="200" height="280" as="geometry"/>
                </mxCell>
                <mxCell id="6" value="" style="rounded=0;whiteSpace=wrap;html=1;fillColor=none;" vertex="1" parent="1">
                    <mxGeometry x="320" y="140" width="40" height="20" as="geometry"/>
                </mxCell>
                <mxCell id="7" value="dataaccess" style="rounded=0;whiteSpace=wrap;html=1;fillColor=none;verticalAlign=top;fontStyle=1" vertex="1" parent="1">
                    <mxGeometry x="600" y="160" width="200" height="280" as="geometry"/>
                </mxCell>
                <mxCell id="8" value="" style="rounded=0;whiteSpace=wrap;html=1;fillColor=none;" vertex="1" parent="1">
                    <mxGeometry x="600" y="140" width="40" height="20" as="geometry"/>
                </mxCell>
                <mxCell id="9" value="&lt;span style=&quot;font-weight: normal;&quot;&gt;Request&lt;/span&gt;" style="rounded=0;whiteSpace=wrap;html=1;fillColor=none;verticalAlign=middle;fontStyle=1" vertex="1" parent="1">
                    <mxGeometry x="80" y="200" width="80" height="40" as="geometry"/>
                </mxCell>
                <mxCell id="10" value="&lt;span style=&quot;font-weight: normal;&quot;&gt;Router&lt;br&gt;(Controller)&lt;br&gt;&lt;/span&gt;" style="rounded=0;whiteSpace=wrap;html=1;fillColor=none;verticalAlign=middle;fontStyle=1" vertex="1" parent="1">
                    <mxGeometry x="120" y="280" width="80" height="40" as="geometry"/>
                </mxCell>
                <mxCell id="11" value="&lt;span style=&quot;font-weight: normal;&quot;&gt;Response&lt;/span&gt;" style="rounded=0;whiteSpace=wrap;html=1;fillColor=none;verticalAlign=middle;fontStyle=1" vertex="1" parent="1">
                    <mxGeometry x="80" y="360" width="80" height="40" as="geometry"/>
                </mxCell>
                <mxCell id="12" value="&lt;span style=&quot;font-weight: normal;&quot;&gt;Service&lt;br&gt;(Logic)&lt;br&gt;&lt;/span&gt;" style="rounded=0;whiteSpace=wrap;html=1;fillColor=none;verticalAlign=middle;fontStyle=1" vertex="1" parent="1">
                    <mxGeometry x="400" y="280" width="80" height="40" as="geometry"/>
                </mxCell>
                <mxCell id="13" value="&lt;span style=&quot;font-weight: normal;&quot;&gt;Output&lt;br&gt;(Dto)&lt;br&gt;&lt;/span&gt;" style="rounded=0;whiteSpace=wrap;html=1;fillColor=none;verticalAlign=middle;fontStyle=1" vertex="1" parent="1">
                    <mxGeometry x="360" y="360" width="80" height="40" as="geometry"/>
                </mxCell>
                <mxCell id="14" value="" style="endArrow=classic;html=1;entryX=0.5;entryY=1;entryDx=0;entryDy=0;exitX=0.5;exitY=0;exitDx=0;exitDy=0;" edge="1" parent="1" source="10" target="9">
                    <mxGeometry width="50" height="50" relative="1" as="geometry">
                        <mxPoint x="330" y="310" as="sourcePoint"/>
                        <mxPoint x="380" y="260" as="targetPoint"/>
                    </mxGeometry>
                </mxCell>
                <mxCell id="17" value="" style="endArrow=classic;html=1;entryX=0.5;entryY=0;entryDx=0;entryDy=0;exitX=0.5;exitY=1;exitDx=0;exitDy=0;" edge="1" parent="1" source="10" target="11">
                    <mxGeometry width="50" height="50" relative="1" as="geometry">
                        <mxPoint x="170" y="350" as="sourcePoint"/>
                        <mxPoint x="130" y="310" as="targetPoint"/>
                    </mxGeometry>
                </mxCell>
                <mxCell id="18" value="" style="endArrow=classic;html=1;entryX=0;entryY=0.5;entryDx=0;entryDy=0;exitX=1;exitY=0.5;exitDx=0;exitDy=0;" edge="1" parent="1" source="10" target="12">
                    <mxGeometry width="50" height="50" relative="1" as="geometry">
                        <mxPoint x="170" y="330" as="sourcePoint"/>
                        <mxPoint x="130" y="370" as="targetPoint"/>
                    </mxGeometry>
                </mxCell>
                <mxCell id="19" value="" style="endArrow=classic;html=1;entryX=0;entryY=0.5;entryDx=0;entryDy=0;exitX=1;exitY=0.75;exitDx=0;exitDy=0;" edge="1" parent="1" source="10" target="13">
                    <mxGeometry width="50" height="50" relative="1" as="geometry">
                        <mxPoint x="210" y="310" as="sourcePoint"/>
                        <mxPoint x="410" y="310" as="targetPoint"/>
                    </mxGeometry>
                </mxCell>
                <mxCell id="20" value="" style="endArrow=classic;html=1;exitX=0.5;exitY=1;exitDx=0;exitDy=0;" edge="1" parent="1" source="12">
                    <mxGeometry width="50" height="50" relative="1" as="geometry">
                        <mxPoint x="210" y="320" as="sourcePoint"/>
                        <mxPoint x="400" y="360" as="targetPoint"/>
                    </mxGeometry>
                </mxCell>
                <mxCell id="21" value="&lt;span style=&quot;font-weight: normal;&quot;&gt;Gateway&lt;/span&gt;" style="rounded=0;whiteSpace=wrap;html=1;fillColor=none;verticalAlign=middle;fontStyle=1" vertex="1" parent="1">
                    <mxGeometry x="680" y="280" width="80" height="40" as="geometry"/>
                </mxCell>
                <mxCell id="22" value="&lt;span style=&quot;font-weight: normal;&quot;&gt;Record&lt;br&gt;(Entity)&lt;br&gt;&lt;/span&gt;" style="rounded=0;whiteSpace=wrap;html=1;fillColor=none;verticalAlign=middle;fontStyle=1" vertex="1" parent="1">
                    <mxGeometry x="640" y="360" width="80" height="40" as="geometry"/>
                </mxCell>
                <mxCell id="23" value="" style="endArrow=classic;html=1;exitX=1;exitY=0.75;exitDx=0;exitDy=0;entryX=0;entryY=0.5;entryDx=0;entryDy=0;" edge="1" parent="1" source="12" target="22">
                    <mxGeometry width="50" height="50" relative="1" as="geometry">
                        <mxPoint x="450" y="330" as="sourcePoint"/>
                        <mxPoint x="410" y="370" as="targetPoint"/>
                    </mxGeometry>
                </mxCell>
                <mxCell id="24" value="" style="endArrow=classic;html=1;entryX=0;entryY=0.5;entryDx=0;entryDy=0;" edge="1" parent="1" target="21">
                    <mxGeometry width="50" height="50" relative="1" as="geometry">
                        <mxPoint x="480" y="300" as="sourcePoint"/>
                        <mxPoint x="650" y="390" as="targetPoint"/>
                    </mxGeometry>
                </mxCell>
                <mxCell id="25" value="" style="endArrow=classic;html=1;exitX=0.5;exitY=1;exitDx=0;exitDy=0;" edge="1" parent="1" source="21">
                    <mxGeometry width="50" height="50" relative="1" as="geometry">
                        <mxPoint x="490" y="320" as="sourcePoint"/>
                        <mxPoint x="680" y="360" as="targetPoint"/>
                    </mxGeometry>
                </mxCell>
            </root>
        </mxGraphModel>
    </diagram>
</mxfile>